<?xml version="1.0" standalone="no"?>
<!DOCTYPE svg PUBLIC "-//W3C//DTD SVG 20010904//EN"
 "http://www.w3.org/TR/2001/REC-SVG-20010904/DTD/svg10.dtd">
<svg version="1.0" xmlns="http://www.w3.org/2000/svg"
 width="50.000000pt" height="48.000000pt" viewBox="0 0 50.000000 48.000000"
 preserveAspectRatio="xMidYMid meet">

<g transform="translate(0.000000,48.000000) scale(0.100000,-0.100000)"
fill="#000000" stroke="none">
<path d="M174 401 c-52 -32 -74 -68 -74 -123 0 -86 63 -121 146 -82 48 23 49
30 4 26 -79 -8 -120 82 -66 144 41 49 119 32 147 -31 7 -15 8 -13 4 10 -13 68
-95 96 -161 56z"/>
<path d="M350 175 c-10 -12 -9 -15 8 -15 11 0 22 7 26 15 3 9 0 15 -8 15 -7 0
-19 -7 -26 -15z"/>
<path d="M127 89 c-10 -6 -27 -9 -38 -6 -10 3 -19 1 -19 -4 0 -15 78 -61 103
-62 33 0 128 29 152 47 14 10 2 8 -40 -6 -46 -15 -73 -19 -115 -14 -51 6 -96
26 -58 26 8 0 21 7 28 15 15 18 12 18 -13 4z"/>
</g>
</svg>
